<?xml version="1.0" encoding="utf-8"?>
<!-- Generator: Adobe Illustrator 23.1.1, SVG Export Plug-In . SVG Version: 6.00 Build 0)  -->
<svg version="1.1" id="Capa_1" xmlns="http://www.w3.org/2000/svg" xmlns:xlink="http://www.w3.org/1999/xlink" x="0px" y="0px"
	 viewBox="0 0 1046.7 218.5" style="enable-background:new 0 0 1046.7 218.5;" xml:space="preserve">
<style type="text/css">
	.st0{fill:#EA574E;}
	.st1{fill:#F7F7F7;}
	.st2{fill:#FFFFFF;}
</style>
<g>
	<circle class="st0" cx="110.7" cy="109.3" r="108.9"/>
	<g>
		<path class="st1" d="M618,56.4l-47.4,106.3l22.1,0l8.9-20.1l55.9,0.1l8.5,20.2l21.7,0L640.9,56.4L618,56.4z M610.1,124.1
			l19.6-45.3l19.6,45.4L610.1,124.1z"/>
		<path class="st1" d="M296.6,56.4l-47.4,106.3l22.1,0l8.9-20.1l55.9,0.1l8.5,20.2l21.7,0L319.5,56.4L296.6,56.4z M288.7,124.1
			l19.6-45.3l19.6,45.4L288.7,124.1z"/>
		<path class="st1" d="M550.1,108c7.9-3.9,14.6-11.8,14.7-23.1c0-8.3-3.2-15.3-9.3-20.5c-6.2-5.1-14.8-7.9-25-7.9l-53.1-0.1
			L477,162.8l54.3,0.1c0,0,0.1,0,0.1,0c21.5,0,35.3-11.7,35.4-29.7C566.8,122.6,559.8,112.5,550.1,108z M496.9,74.3l31.2,0.1
			c5.3,0,9.7,1.3,12.7,3.7c2.7,2.2,4.2,5.3,4.2,8.8c0,3.6-1.5,6.6-4.2,8.8c-2.9,2.3-7.3,3.6-12.7,3.6c0,0,0,0-0.1,0l-31.2-0.1
			L496.9,74.3z M542.4,140.7c-3.1,2.4-7.8,3.7-13.5,3.7c0,0,0,0-0.1,0l-32-0.1l0.1-27.8l32,0.1c9.1,0,18.2,4.3,18.2,13.9
			C547.1,134.8,545.4,138.3,542.4,140.7z"/>
		<path class="st1" d="M446.7,108c7.9-3.9,14.6-11.8,14.6-23.1c0-8.3-3.2-15.3-9.3-20.5c-6.2-5.1-14.8-7.9-25-7.9l-53.1-0.1
			l-0.2,106.3l54.3,0.1c0,0,0.1,0,0.1,0c21.5,0,35.3-11.7,35.4-29.7C463.5,122.6,456.4,112.5,446.7,108z M393.5,74.3l31.2,0.1
			c5.3,0,9.7,1.3,12.7,3.7c2.7,2.2,4.2,5.3,4.2,8.8c0,3.6-1.5,6.6-4.2,8.8c-2.9,2.3-7.3,3.6-12.7,3.6c0,0,0,0-0.1,0l-31.2-0.1
			L393.5,74.3z M439,140.7c-3.1,2.4-7.8,3.7-13.5,3.7c0,0,0,0-0.1,0l-32-0.1l0.1-27.8l32,0.1c9.1,0,18.2,4.3,18.2,13.9
			C443.7,134.8,442.1,138.3,439,140.7z"/>
		<path class="st1" d="M846.3,54.2c0,0-0.1,0-0.1,0c-15.6,0-29.6,5.6-39.6,15.9c-9.8,10.1-15.3,24.2-15.3,39.8
			c-0.1,32.3,23,55.8,54.8,55.9c0,0,0.1,0,0.1,0c31.8,0,54.9-23.4,55-55.6C901.3,77.7,878.2,54.2,846.3,54.2z M846.4,146.5
			C846.4,146.5,846.4,146.5,846.4,146.5c-20.9,0-34.9-14.8-34.9-36.7c0-10.4,3.4-19.8,9.5-26.3c6.3-6.7,15.1-10.3,25.4-10.3
			c0,0,0.1,0,0.1,0c10.3,0,19.1,3.6,25.4,10.4c6.2,6.6,9.5,15.9,9.5,26.3C881.4,131.4,867,146.5,846.4,146.5z"/>
		
			<rect x="872.9" y="100.1" transform="matrix(1.799997e-03 -1 1 1.799997e-03 815.0417 1035.8948)" class="st1" width="107" height="19.2"/>
		<polygon class="st1" points="1025.1,122.4 973.1,56.2 956.7,56.2 956.5,163 976.3,163.1 976.5,90.8 1032.7,163.2 1044.7,163.2 
			1044.8,56.4 1025.3,56.3 		"/>
		<path class="st1" d="M745.4,147.4C745.4,147.4,745.4,147.4,745.4,147.4c-10.8,0-20.6-4-27.7-11.1c-7.1-7.2-10.1-15.3-10-26.4
			c0-11.2,3-19.3,10.2-26.5c7.1-7,16.8-10.9,27.6-10.9c0,0,0.1,0,0.1,0c9.4,0,18.8,4.2,24.9,10.8L784,70.7
			c-9.8-10.8-23-16.5-38.4-16.6c0,0-0.1,0-0.1,0c-15.6,0-30,5.5-40.5,15.4c-10.8,10.2-16.7,24.5-16.8,40.3
			c0,15.8,5.9,30.1,16.6,40.3c10.5,10,24.9,15.5,40.6,15.5c0,0,0.1,0,0.1,0c15.6,0,29.4-5.8,39.9-17.1l-13.7-13.4
			C765.5,142.6,755.4,147.4,745.4,147.4z"/>
	</g>
	<path class="st2" d="M160.3,109.7c0-9.8-0.2-29.7-9.4-40.6c-5.9-7.1-10.9-9.6-15.5-11.1V42.2h-21.3v12.3c-2.2,0-5.1,0.1-8.4,0.5
		V42.2H84.4v17.5C78.6,62,72.1,65.6,66,71.4l17.4,17.5c0,0,7.8-8.8,16-10.9s17.9-2.7,25.4,3.8c5.5,4.7,6,13.5,6,13.5
		s-14.5,0.2-28.6,1.5c-11,1-30,4.8-38.7,19.3c-1.5,2.5-4.3,8.4-3.9,17c0.4,8.6,3.6,24.9,24.9,30.1v14.1h21.3V164
		c3.2-0.5,6.1-1.3,8.4-2.1v15.4h21.3v-15h24.9C160.3,162.3,160.3,119.5,160.3,109.7z M90.4,130.2c0.6-10.4,14.7-12.9,21.3-13.5
		c6.5-0.6,18.7-0.7,18.7-0.7s0.2,6.6-0.7,11.8c-1.7,10.5-14.8,14.5-21.5,14.9C101.5,143.2,89.8,140.4,90.4,130.2z"/>
</g>
</svg>
