<?xml version="1.0" encoding="utf-8"?>
<!-- Generator: Adobe Illustrator 23.1.1, SVG Export Plug-In . SVG Version: 6.00 Build 0)  -->
<svg version="1.1" id="Capa_1" xmlns="http://www.w3.org/2000/svg" xmlns:xlink="http://www.w3.org/1999/xlink" x="0px" y="0px"
	 viewBox="0 0 200 200" style="enable-background:new 0 0 200 200;" xml:space="preserve">
<style type="text/css">
	.st0{fill:#EA574E;}
	.st1{fill:#FFFFFF;}
</style>
<circle class="st0" cx="100.1" cy="99.6" r="99.4"/>
<path class="st1" d="M145.4,99.9c0-9-0.2-27.1-8.5-37.1c-5.4-6.4-10-8.8-14.2-10.1V38.3h-19.5v11.2c-2,0-4.7,0.1-7.7,0.4V38.3H76v16
	c-5.2,2.1-11.2,5.4-16.8,10.7L75,81c0,0,7.1-8,14.6-10c7.5-2,16.4-2.4,23.2,3.4c5,4.3,5.4,12.4,5.4,12.4S105,87,92.1,88.2
	c-10.1,1-27.4,4.4-35.4,17.7c-1.4,2.3-3.9,7.6-3.6,15.5c0.4,7.9,3.2,22.7,22.8,27.4v12.9h19.5v-12.1c2.9-0.5,5.5-1.2,7.7-1.9v14
	h19.5V148h22.7C145.4,148,145.4,108.9,145.4,99.9z M81.5,118.7c0.5-9.5,13.5-11.8,19.4-12.3c6-0.5,17.1-0.6,17.1-0.6
	s0.1,6.1-0.6,10.7c-1.5,9.6-13.5,13.2-19.7,13.6C91.6,130.5,81,128,81.5,118.7z"/>
</svg>
