<?xml version="1.0" encoding="utf-8"?>
<!-- Generator: Adobe Illustrator 23.0.1, SVG Export Plug-In . SVG Version: 6.00 Build 0)  -->
<svg version="1.1" id="Capa_1" xmlns="http://www.w3.org/2000/svg" xmlns:xlink="http://www.w3.org/1999/xlink" x="0px" y="0px"
	 viewBox="0 0 250 250" style="enable-background:new 0 0 250 250;" xml:space="preserve">
<style type="text/css">
	.st0{fill:none;}
	.st1{fill:#FFFFFF;}
	.st2{fill:#EA574E;}
	.st3{opacity:0.5;}
</style>
<g>
	<path class="st0" d="M230.668,52.121c-0.131-4.92-1.662-9.611-4.456-13.657c-1.972,1.445-4.085,2.676-6.303,3.671
		c1.03,3.224,1.583,6.578,1.648,9.991L230.668,52.121z"/>
	<path class="st0" d="M191.165,65.368c-1.235-3.206-1.981-6.581-2.223-10.056l-8.786,0.004c0.48,4.882,2.343,9.442,5.426,13.286
		C187.327,67.355,189.198,66.271,191.165,65.368z"/>
	<path class="st0" d="M153.264,27.691c1.394,0.756,3.137,0.239,3.893-1.154c0.756-1.394,0.239-3.136-1.154-3.892
		c-1.393-0.755-3.136-0.239-3.892,1.154C151.354,25.193,151.871,26.935,153.264,27.691z"/>
	<path class="st0" d="M206.937,55.302v6.915c3.242,0.107,6.427,0.654,9.492,1.631c1.013-2.734,1.638-5.603,1.861-8.552
		L206.937,55.302z"/>
	<path class="st0" d="M206.937,77.101c3.475-2.854,6.293-6.383,8.241-10.326c-2.666-0.822-5.431-1.288-8.241-1.39V77.101z"/>
	<path class="st0" d="M230.551,55.29l-9.083,0.005c-0.23,3.329-0.924,6.569-2.064,9.653c2.115,0.895,4.132,2,6.013,3.294
		C228.329,64.468,230.091,60.023,230.551,55.29z"/>
	<path class="st0" d="M206.937,45.141v6.993l11.447-0.007c-0.065-3.042-0.547-5.99-1.433-8.827
		C213.715,44.407,210.354,45.024,206.937,45.141z"/>
	<path class="st0" d="M206.937,41.966c3.049-0.113,6.041-0.663,8.921-1.64c-1.958-4.564-5.013-8.608-8.921-11.816V41.966z"/>
	<path class="st0" d="M211.342,77.407c4.514-1.101,8.661-3.436,11.968-6.766c-1.613-1.081-3.334-2.01-5.133-2.773
		C216.471,71.424,214.18,74.62,211.342,77.407z"/>
	<path class="st0" d="M22.895,94.478h-3.847c-2.045,0-3.709,1.664-3.709,3.709v6.921h11.265v-6.921
		C26.604,96.142,24.94,94.478,22.895,94.478z"/>
	<path class="st0" d="M203.768,62.254v-6.95l-11.648,0.005c0.234,3.065,0.901,6.041,1.985,8.869
		C197.21,63.087,200.452,62.441,203.768,62.254z"/>
	<path class="st0" d="M198.979,28.302c-4.656,1.211-8.886,3.738-12.197,7.313c1.572,1.192,3.253,2.234,5.014,3.108
		C193.504,34.86,195.952,31.315,198.979,28.302z"/>
	<path class="st0" d="M203.768,52.135v-7.033c-3.508-0.201-6.932-0.924-10.202-2.154c-0.962,2.958-1.48,6.043-1.544,9.194
		L203.768,52.135z"/>
	<path class="st0" d="M194.702,39.986c2.91,1.093,5.952,1.744,9.065,1.94V28.269C199.82,31.433,196.715,35.446,194.702,39.986z"/>
	<path class="st0" d="M180.037,52.147l8.814-0.004c0.065-3.587,0.666-7.098,1.788-10.454c-2.062-1.002-4.029-2.216-5.864-3.618
		C181.795,42.212,180.166,47.048,180.037,52.147z"/>
	<path class="st0" d="M203.768,77.343V65.426c-2.869,0.177-5.678,0.734-8.374,1.659C197.392,71.018,200.258,74.527,203.768,77.343z"
		/>
	<path class="st0" d="M211.328,28.199c3.191,3.147,5.74,6.877,7.478,10.957c1.911-0.873,3.737-1.941,5.447-3.186
		C220.798,32.091,216.309,29.402,211.328,28.199z"/>
	<path class="st0" d="M192.438,68.269c-1.653,0.763-3.23,1.666-4.71,2.695c3.147,3.053,7.035,5.238,11.237,6.339
		C196.29,74.651,194.104,71.625,192.438,68.269z"/>
	<path class="st0" d="M128.06,79.32c-15.663,0-28.36,12.698-28.36,28.361c0,15.663,12.698,28.361,28.36,28.361
		c15.663,0,28.361-12.698,28.361-28.361C156.421,92.017,143.723,79.32,128.06,79.32z"/>
	<path class="st1" d="M90.127,193.258l6.333,1.228l20.906-45.784c-2.053-0.534-4.044-1.218-5.963-2.039L90.127,193.258z"/>
	<path class="st1" d="M178.776,71.952l-1.769-2.405l-15.859,11.66c0.622,0.776,1.218,1.574,1.785,2.393L178.776,71.952z"/>
	
		<rect x="141.051" y="46.206" transform="matrix(0.4368 -0.8996 0.8996 0.4368 38.2157 156.4349)" class="st1" width="5.971" height="2.986"/>
	<path class="st1" d="M138.859,61.779l-2.686-1.304l-2.525,5.199c1.035,0.136,2.061,0.3,3.071,0.51L138.859,61.779z"/>
	
		<rect x="137.138" y="54.263" transform="matrix(0.4368 -0.8996 0.8996 0.4368 28.7645 157.4533)" class="st1" width="5.971" height="2.986"/>
	
		<rect x="144.963" y="38.149" transform="matrix(0.4368 -0.8996 0.8996 0.4368 47.668 155.4173)" class="st1" width="5.971" height="2.986"/>
	<path class="st1" d="M102.07,74.006L69.956,41.394l-2.127,2.095l32.048,32.545c0.366-0.326,0.735-0.65,1.113-0.964L102.07,74.006z"
		/>
	<path class="st1" d="M35.732,116.236l0.01,2.986l51.489-0.169c-0.273-0.982-0.519-1.974-0.722-2.983L35.732,116.236z"/>
	<path class="st1" d="M187.101,147.548l1.719-2.441l-24.803-14.995c-0.528,0.844-1.085,1.668-1.669,2.471L187.101,147.548z"/>
	<path class="st2" d="M164.018,130.113c4.068-6.507,6.427-14.192,6.427-22.432c0-8.947-2.779-17.241-7.511-24.081
		c-0.567-0.82-1.163-1.617-1.785-2.393c-6.046-7.546-14.612-12.984-24.429-15.022c-1.01-0.21-2.036-0.374-3.071-0.51
		c-1.83-0.241-3.692-0.378-5.588-0.378c-10.294,0-19.728,3.672-27.071,9.774c-0.378,0.314-0.746,0.637-1.113,0.964
		c-8.71,7.763-14.201,19.061-14.201,31.647c0,2.872,0.289,5.677,0.834,8.389c0.203,1.009,0.449,2.001,0.722,2.983
		c3.461,12.451,12.453,22.596,24.173,27.61c1.919,0.821,3.91,1.506,5.963,2.039c3.416,0.888,6.999,1.363,10.694,1.363
		c14.099,0,26.583-6.89,34.289-17.481C162.933,131.781,163.49,130.957,164.018,130.113z M128.06,136.041
		c-15.663,0-28.36-12.698-28.36-28.361c0-15.663,12.698-28.361,28.36-28.361c15.663,0,28.361,12.698,28.361,28.361
		C156.421,123.344,143.723,136.041,128.06,136.041z"/>
	<path class="st2" d="M29.077,105.129v-6.942c0-3.409-2.773-6.182-6.182-6.182h-3.847c-3.408,0-6.182,2.773-6.182,6.182v6.942
		c-2.529,0.212-4.533,2.344-4.533,4.924v15.386c0,2.72,2.226,4.945,4.945,4.945h15.386c2.72,0,4.945-2.225,4.945-4.945v-15.386
		C33.61,107.472,31.605,105.34,29.077,105.129z M17.037,123.613l1.534-5.904c-0.817-0.688-1.348-1.705-1.348-2.856
		c0-2.071,1.679-3.749,3.749-3.749c2.07,0,3.748,1.678,3.748,3.749c0,1.151-0.53,2.168-1.347,2.856l1.534,5.904H17.037z
		 M26.604,105.108H15.339v-6.921c0-2.045,1.664-3.709,3.709-3.709h3.847c2.045,0,3.709,1.664,3.709,3.709V105.108z"/>
	<path class="st1" d="M24.72,114.853c0-2.071-1.678-3.749-3.748-3.749c-2.07,0-3.749,1.678-3.749,3.749
		c0,1.152,0.53,2.169,1.348,2.856l-1.534,5.904h7.87l-1.534-5.904C24.189,117.022,24.72,116.004,24.72,114.853z"/>
	<path class="st2" d="M69.163,183.624v-2.55h5.031v2.55h2.549v7.409c3.849-1.729,6.569-6.139,6.569-10.576
		c0-6.425-5.209-11.634-11.634-11.634c-6.425,0-11.634,5.209-11.634,11.634c0,4.278,2.464,8.378,6.567,10.476v-7.308H69.163z"/>
	<path class="st2" d="M87.736,180.456c0-8.854-7.203-16.058-16.058-16.058s-16.058,7.203-16.058,16.058
		c0,6.838,4.298,12.688,10.334,14.999v-2.222c-4.876-2.193-8.281-7.093-8.281-12.777c0-7.723,6.283-14.005,14.005-14.005
		c7.723,0,14.005,6.283,14.005,14.005c0,5.773-3.511,10.74-8.51,12.881v0.144h3.867C85.089,190.563,87.736,185.817,87.736,180.456z"
		/>
	<rect x="69.163" y="181.074" class="st1" width="5.031" height="2.55"/>
	<polygon class="st1" points="92.117,198.651 89.566,198.651 89.566,201.203 89.566,208.647 92.117,208.647 92.117,201.203 
		94.599,201.203 94.599,198.651 	"/>
	<rect x="94.598" y="221.089" class="st1" width="2.55" height="7.498"/>
	<rect x="61.648" y="213.128" class="st1" width="2.551" height="5.219"/>
	<rect x="64.06" y="218.376" class="st1" width="2.552" height="5.22"/>
	<rect x="66.611" y="223.596" class="st1" width="2.551" height="5.219"/>
	<polygon class="st1" points="92.047,233.601 71.713,233.601 71.713,228.815 69.163,228.815 69.163,233.601 69.163,236.039 
		71.713,236.039 94.598,236.039 94.598,235.809 94.598,233.601 94.598,228.587 92.047,228.587 	"/>
	<polygon class="st1" points="74.194,183.624 74.194,206.303 76.743,206.303 76.743,196.033 82.052,196.033 82.052,193.481 
		81.041,193.481 77.174,193.481 76.743,193.481 76.743,191.033 76.743,183.624 	"/>
	<rect x="97.148" y="203.753" class="st1" width="2.552" height="17.336"/>
	<polygon class="st1" points="84.603,196.102 82.052,196.102 82.052,198.651 82.052,206.028 84.603,206.028 84.603,198.651 
		89.566,198.651 89.566,196.102 	"/>
	<polygon class="st1" points="64.06,205.752 64.06,208.164 66.611,208.164 66.611,216.622 69.163,216.622 69.163,183.624 
		66.611,183.624 66.611,190.932 66.611,205.613 64.06,205.613 64.06,203.2 59.098,203.2 56.547,203.2 56.547,205.752 
		56.547,210.577 59.098,210.577 59.098,205.752 	"/>
	<rect x="94.599" y="201.203" class="st1" width="2.549" height="2.55"/>
	<rect x="59.098" y="210.577" class="st1" width="2.551" height="2.551"/>
	<path class="st2" d="M55.977,17.147c3.548,0,6.775,1.58,8.957,4.226l-5.44-1.487l-0.83,3.034l11.377,3.113V14.765h-3.146v4.033
		C64.139,15.773,60.229,14,55.977,14c-8.163,0-14.805,6.641-14.805,14.805h3.148C44.32,22.376,49.549,17.147,55.977,17.147z"/>
	<path class="st2" d="M44.32,39.563c2.754,3.024,6.664,4.798,10.917,4.798c8.162,0,14.805-6.641,14.805-14.804h-3.146
		c0,6.428-5.229,11.657-11.658,11.657c-3.547,0-6.777-1.58-8.959-4.225l5.442,1.487l0.828-3.035l-11.375-3.112v11.267h3.148V39.563z
		"/>
	<path class="st2" d="M203.715,81.252c0.107,0.043,0.228,0.062,0.347,0.062c0.077,0,0.154-0.008,0.228-0.021
		c0.023-0.004,0.046-0.009,0.069-0.016c0.575,0.021,1.156,0.023,1.736,0.004l0.028-0.001c0.028,0.006,0.057,0.012,0.085,0.016
		c0.117,0.02,0.254,0.005,0.382-0.032c15.297-0.655,27.256-13.127,27.256-28.46c0-15.302-11.913-27.755-27.167-28.456
		c-0.188-0.079-0.403-0.082-0.606-0.021l-0.023-0.001c-0.536-0.018-1.076-0.017-1.608,0.003c-0.234-0.093-0.502-0.088-0.74,0.031
		c-15.071,0.865-26.842,13.311-26.842,28.444C176.858,67.945,188.635,80.395,203.715,81.252z M192.438,68.269
		c1.665,3.356,3.852,6.382,6.527,9.034c-4.202-1.101-8.09-3.286-11.237-6.339C189.208,69.935,190.785,69.032,192.438,68.269z
		 M203.768,55.305v6.95c-3.315,0.187-6.558,0.833-9.663,1.924c-1.084-2.828-1.751-5.804-1.985-8.869L203.768,55.305z
		 M203.768,65.426v11.917c-3.51-2.816-6.376-6.325-8.374-10.258C198.09,66.16,200.898,65.603,203.768,65.426z M203.768,45.102v7.033
		l-11.746,0.007c0.063-3.151,0.582-6.236,1.544-9.194C196.836,44.178,200.26,44.901,203.768,45.102z M203.768,41.926
		c-3.113-0.196-6.155-0.847-9.065-1.94c2.013-4.541,5.118-8.554,9.065-11.718V41.926z M198.979,28.302
		c-3.026,3.013-5.475,6.558-7.184,10.421c-1.761-0.874-3.441-1.916-5.014-3.108C190.093,32.04,194.322,29.513,198.979,28.302z
		 M188.852,52.143l-8.814,0.004c0.129-5.099,1.758-9.935,4.738-14.076c1.835,1.402,3.802,2.615,5.864,3.618
		C189.518,45.045,188.917,48.555,188.852,52.143z M188.942,55.312c0.241,3.475,0.987,6.85,2.223,10.056
		c-1.967,0.903-3.838,1.987-5.583,3.235c-3.083-3.844-4.945-8.404-5.426-13.286L188.942,55.312z M219.909,42.135
		c2.218-0.995,4.331-2.226,6.303-3.671c2.794,4.046,4.325,8.737,4.456,13.657l-9.11,0.005
		C221.492,48.712,220.939,45.358,219.909,42.135z M206.937,52.134v-6.993c3.418-0.116,6.778-0.733,10.015-1.84
		c0.886,2.836,1.367,5.784,1.433,8.827L206.937,52.134z M221.468,55.294l9.083-0.005c-0.46,4.734-2.222,9.178-5.135,12.952
		c-1.881-1.294-3.897-2.399-6.013-3.294C220.544,61.863,221.237,58.624,221.468,55.294z M218.806,39.156
		c-1.737-4.079-4.286-7.809-7.478-10.957c4.98,1.203,9.47,3.892,12.925,7.771C222.543,37.215,220.717,38.283,218.806,39.156z
		 M215.857,40.327c-2.88,0.977-5.872,1.527-8.921,1.64V28.51C210.845,31.719,213.899,35.762,215.857,40.327z M206.937,77.101V65.385
		c2.811,0.102,5.575,0.568,8.241,1.39C213.229,70.718,210.411,74.247,206.937,77.101z M211.342,77.407
		c2.838-2.787,5.129-5.982,6.835-9.539c1.799,0.763,3.52,1.692,5.133,2.773C220.003,73.971,215.855,76.306,211.342,77.407z
		 M206.937,62.217v-6.915l11.354-0.006c-0.224,2.949-0.849,5.817-1.861,8.552C213.363,62.871,210.179,62.324,206.937,62.217z"/>
	<path class="st1" d="M213.6,138.081c-11.392,0.354-21.792,9.47-21.42,21.42c0.354,11.392,9.472,21.792,21.42,21.42
		c11.956-0.371,21.049-9.466,21.42-21.42C234.666,148.11,225.552,137.708,213.6,138.081z M214.369,171.146l-0.004,1.672
		c-0.002,0.367-0.2,0.535-0.668,0.535c-0.47,0-0.668-0.172-0.668-0.537l0.004-1.638c-3.774-0.109-6.611-1.556-6.611-2.458
		c0-0.537,0.809-1.801,1.176-1.799c0.397,0,2.196,1.743,5.439,1.85l0.024-8.62c-2.934-1.146-6.178-2.32-6.165-6.633
		c0.013-3.275,2.421-5.542,6.201-5.933v-1.404c0.002-0.367,0.204-0.532,0.67-0.532c0.47,0,0.665,0.167,0.665,0.537l-0.002,1.335
		c1.904,0.039,5.276,0.82,5.276,1.921c0,0.5-0.741,1.767-1.075,1.767c-0.5-0.002-1.7-1.206-4.205-1.279l-0.026,7.788
		c2.975,1.073,6.377,2.284,6.369,6.899C220.763,168.427,218.282,170.824,214.369,171.146z"/>
	<path class="st1" d="M214.399,160.688l-0.024,7.987c1.975-0.363,3.346-1.895,3.355-4.068
		C217.737,162.504,216.236,161.496,214.399,160.688z"/>
	<path class="st1" d="M209.938,153.661c-0.007,1.902,1.365,2.808,3.132,3.55l0.019-7.184
		C211.186,150.355,209.943,151.555,209.938,153.661z"/>
	<path class="st2" d="M240.565,158.837c-0.786-14.717-12.141-25.893-26.965-26.354c-15.041-0.468-26.57,12.673-27.016,27.018
		c-0.47,15.041,12.673,26.567,27.016,27.018c14.807,0.458,26.188-12.273,26.962-26.35c0.041-0.208,0.062-0.429,0.054-0.669
		C240.625,159.263,240.603,159.043,240.565,158.837z M213.6,180.922c-11.948,0.371-21.066-10.029-21.42-21.42
		c-0.371-11.95,10.029-21.066,21.42-21.42c11.952-0.373,21.066,10.029,21.42,21.42C234.649,171.456,225.556,180.55,213.6,180.922z"
		/>
	<path class="st2" d="M214.401,157.718l0.026-7.788c2.505,0.073,3.705,1.277,4.205,1.279c0.335,0,1.075-1.266,1.075-1.767
		c0-1.101-3.372-1.882-5.276-1.921l0.002-1.335c0-0.369-0.195-0.537-0.665-0.537c-0.466,0-0.668,0.165-0.67,0.532v1.404
		c-3.78,0.391-6.189,2.657-6.201,5.933c-0.013,4.312,3.23,5.487,6.165,6.633l-0.024,8.62c-3.243-0.107-5.042-1.85-5.439-1.85
		c-0.367-0.002-1.176,1.262-1.176,1.799c0,0.902,2.838,2.348,6.611,2.458l-0.004,1.638c0,0.365,0.198,0.537,0.668,0.537
		c0.468,0,0.666-0.167,0.668-0.535l0.004-1.672c3.913-0.322,6.395-2.72,6.401-6.53C220.778,160.002,217.376,158.791,214.401,157.718
		z M213.07,157.211c-1.767-0.743-3.138-1.649-3.132-3.55c0.004-2.106,1.247-3.306,3.151-3.634L213.07,157.211z M214.375,168.676
		l0.024-7.987c1.837,0.807,3.338,1.816,3.331,3.919C217.722,166.78,216.35,168.313,214.375,168.676z"/>
	<path class="st2" d="M145.936,28.911l1.899-0.563c0.508,1.087,1.277,2.057,2.278,2.811l-0.944,1.742l1.963,1.065l0.945-1.742
		c1.177,0.428,2.41,0.545,3.598,0.377l0.563,1.9l2.14-0.635l-0.563-1.9c1.086-0.508,2.057-1.277,2.81-2.278l1.742,0.945l1.065-1.962
		l-1.743-0.945c0.429-1.178,0.545-2.411,0.377-3.598l1.9-0.563l-0.634-2.14l-1.9,0.564c-0.507-1.087-1.277-2.057-2.278-2.811
		l0.945-1.742l-1.963-1.065l-0.945,1.742c-1.178-0.429-2.41-0.544-3.599-0.378l-0.563-1.899l-2.141,0.635l0.564,1.899
		c-1.087,0.507-2.057,1.277-2.811,2.278l-1.742-0.945l-1.065,1.962l1.742,0.945c-0.428,1.178-0.545,2.41-0.377,3.598l-1.899,0.563
		L145.936,28.911z M152.11,23.799c0.756-1.393,2.499-1.91,3.892-1.154c1.393,0.756,1.91,2.499,1.154,3.892
		c-0.756,1.393-2.499,1.91-3.893,1.154C151.871,26.935,151.354,25.193,152.11,23.799z"/>
</g>
<g class="st3">
	<g>
		<path class="st2" d="M128.06,136.041c15.663,0,28.361-12.698,28.361-28.361c0-15.663-12.698-28.361-28.361-28.361V65.296
			c23.408,0,42.385,18.976,42.385,42.385c0,23.408-18.976,42.385-42.385,42.385V136.041z"/>
	</g>
</g>
</svg>
