<?xml version="1.0" encoding="utf-8"?>
<!-- Generator: Adobe Illustrator 23.1.1, SVG Export Plug-In . SVG Version: 6.00 Build 0)  -->
<svg version="1.1" id="Layer_1" xmlns="http://www.w3.org/2000/svg" xmlns:xlink="http://www.w3.org/1999/xlink" x="0px" y="0px"
	 viewBox="0 0 50 50" style="enable-background:new 0 0 50 50;" xml:space="preserve">
<style type="text/css">
	.st0{fill:#E8E8E8;}
</style>
<g>
	<path class="st0" d="M23.853,16.899c0.247-1.158,0.501-2.333,0.748-3.51c0.58-2.766,1.154-5.533,1.736-8.299
		c0.197-0.937,0.629-1.228,1.585-1.042c2.566,0.498,5.13,1.006,7.692,1.525c0.365,0.074,0.595,0.055,0.854-0.287
		c0.956-1.263,2.751-1.659,4.174-0.98c1.42,0.678,2.23,2.312,1.915,3.867c-0.313,1.547-1.749,2.722-3.367,2.757
		c-1.549,0.033-2.981-1.045-3.362-2.589c-0.096-0.388-0.244-0.557-0.639-0.633c-2.289-0.44-4.572-0.91-6.936-1.386
		c-0.752,3.609-1.499,7.195-2.24,10.752c1.375,0.178,2.722,0.305,4.051,0.534c3.231,0.556,6.21,1.77,8.943,3.583
		c0.299,0.198,0.483,0.199,0.777-0.029c2.311-1.79,5.548-1.31,7.236,1.052c1.703,2.382,1.096,5.525-1.376,7.186
		c-0.14,0.094-0.295,0.31-0.288,0.462c0.202,4.365-1.608,7.779-4.925,10.471c-3.09,2.509-6.681,3.895-10.562,4.539
		c-5.175,0.858-10.245,0.448-15.13-1.55c-3.358-1.373-6.255-3.371-8.284-6.471c-1.351-2.062-1.852-4.349-1.774-6.779
		c0.012-0.383-0.095-0.554-0.413-0.741c-1.927-1.131-2.83-3.075-2.487-5.269c0.311-1.981,1.918-3.685,3.945-4.105
		c1.537-0.318,2.957,0.005,4.194,0.995c0.243,0.194,0.41,0.234,0.687,0.054c3.962-2.572,8.297-3.951,13.024-4.069
		C23.688,16.934,23.742,16.918,23.853,16.899z M36.24,28.786c0.005-1.972-1.545-3.563-3.474-3.566
		c-1.906-0.003-3.489,1.595-3.473,3.505c0.017,1.947,1.731,3.589,3.717,3.561C34.754,32.26,36.235,30.655,36.24,28.786z
		 M16.581,25.062c-1.908-0.007-3.468,1.52-3.49,3.419c-0.022,1.917,1.543,3.514,3.452,3.523c1.922,0.009,3.49-1.56,3.484-3.485
		C20.02,26.608,18.487,25.069,16.581,25.062z M24.881,40.829c2.167,0.085,4.234-0.332,6.173-1.302
		c0.754-0.377,1.431-0.913,2.191-1.274c0.452-0.215,0.497-0.499,0.435-0.888c-0.067-0.424-0.335-0.708-0.755-0.707
		c-0.298,0-0.646,0.085-0.886,0.255c-3.139,2.22-6.622,2.497-10.259,1.823c-1.457-0.27-2.78-0.918-4.005-1.755
		c-0.109-0.074-0.215-0.154-0.33-0.217c-0.495-0.27-1.01-0.16-1.294,0.272c-0.285,0.431-0.181,0.944,0.287,1.28
		C18.963,40.127,21.795,40.909,24.881,40.829z"/>
</g>
</svg>
