<?xml version="1.0" encoding="utf-8"?>
<!-- Generator: Adobe Illustrator 23.1.1, SVG Export Plug-In . SVG Version: 6.00 Build 0)  -->
<svg version="1.1" id="Layer_1" xmlns="http://www.w3.org/2000/svg" xmlns:xlink="http://www.w3.org/1999/xlink" x="0px" y="0px"
	 viewBox="0 0 50 50" style="enable-background:new 0 0 50 50;" xml:space="preserve">
<style type="text/css">
	.st0{enable-background:new    ;}
	.st1{fill:#E8E8E8;}
</style>
<g>
	<g class="st0">
		<path class="st1" d="M19.402,45.103c-6.873,0-12.465-5.592-12.465-12.465s5.592-12.465,12.465-12.465v6.15
			c-3.482,0-6.315,2.833-6.315,6.315s2.833,6.315,6.315,6.315s6.315-2.833,6.315-6.315V5.589c-0.001-0.099-0.001-0.198,0-0.294
			l6.15,0.039v0.084c0.011,1.098,0.418,8.992,9.689,9.572l-0.384,6.138c-3.997-0.25-7.031-1.454-9.305-3.143v14.653
			C31.867,39.511,26.275,45.103,19.402,45.103z"/>
	</g>
</g>
</svg>
